Coordinates
version=1
nRows=5
nColumns=42
inDegrees=yes

Units are S.I. units (second, meters, Newtons, ...)
If the header above contains a line with 'inDegrees', this indicates whether rotational values are in degrees (yes) or radians (no).

endheader
time	pelvis_tilt	pelvis_list	pelvis_rotation	pelvis_tx	pelvis_ty	pelvis_tz	hip_flexion_r	hip_adduction_r	hip_rotation_r	knee_angle_r	knee_adduction_r	knee_angle_r_beta	ankle_angle_r	subtalar_angle_r	mtp_angle_r	hip_flexion_l	hip_adduction_l	hip_rotation_l	knee_angle_l	knee_adduction_l	knee_angle_l_beta	ankle_angle_l	subtalar_angle_l	mtp_angle_l	lumbar_extension	lumbar_bending	lumbar_rotation	arm_flex_r	arm_add_r	arm_rot_r	elbow_flex_r	pro_sup_r	wrist_flex_r	wrist_dev_r	arm_flex_l	arm_add_l	arm_rot_l	elbow_flex_l	pro_sup_l	wrist_flex_l	wrist_dev_l
      1.16000000	      2.12002788	      1.29746507	      2.69278950	     -1.37024439	      0.86843191	      0.19860396	     27.76517543	     -2.45380867	    -27.34073922	     69.35801798	    -21.02817123	      1.21052578	      0.51208989	    -17.35479291	     -7.56098674	     15.22925437	     10.49976827	    -15.02578991	     29.27604995	    -14.48228758	      0.51096346	     23.78798335	     15.28601681	     -7.56098674	    -20.61469087	     -1.98595193	      0.01155993	      8.06968819	    -14.99444365	     16.37166427	     33.74492547	     90.00000001	      0.00000000	      0.00000000	     10.57596376	    -17.20404773	     16.42679213	     42.27808069	     90.00000001	      0.00000000	      0.00000000
      1.17000000	      2.16794784	      1.26768782	      3.31702536	     -1.35858107	      0.86909955	      0.19860524	     28.80006381	     -2.49521972	    -27.25242837	     67.11166842	    -20.52110145	      1.17131958	      1.26078433	    -17.10306539	     -7.55839752	     13.93874351	     10.40688194	    -15.19351213	     28.55068445	    -14.61750125	      0.49830345	     24.62852391	     16.69326014	     -7.55839752	    -20.69876081	     -1.87538299	     -0.58755619	      7.22202598	    -14.82580921	     16.41000119	     33.57897505	     90.00000001	      0.00000000	      0.00000000	     11.64551965	    -17.85178381	     16.41704566	     43.54399009	     90.00000001	      0.00000000	      0.00000000
      1.18000000	      2.21133167	      1.21655449	      3.95364247	     -1.34685561	      0.86931661	      0.19870449	     29.74424995	     -2.51937800	    -27.41150314	     64.57597181	    -20.21632214	      1.12706333	      1.75856991	    -16.67551095	     -7.55393416	     12.91183342	     10.06364266	    -16.42700760	     28.06919553	    -14.99392440	      0.48989988	     25.80974448	     19.92360998	     -7.55393416	    -20.77812748	     -1.76089417	     -1.16832107	      6.32659271	    -14.59345512	     16.35678041	     33.37635960	     90.00000001	      0.00000000	      0.00000000	     12.52545121	    -18.78428500	     16.83979852	     45.54364896	     90.00000001	      0.00000000	      0.00000000
      1.19000000	      2.26029733	      1.22455004	      4.59623383	     -1.33515657	      0.86928761	      0.19872857	     30.56155975	     -2.62922738	    -27.44692212	     61.83570581	    -19.77730235	      1.07923666	      2.37371752	    -16.14983536	     -7.54887802	     11.83904869	      9.82778404	    -17.31357449	     27.58434066	    -15.27043267	      0.48143757	     26.83485711	     22.42128503	     -7.54887802	    -20.87288035	     -1.69960707	     -1.75227084	      5.45280363	    -14.36757080	     16.20053286	     33.22855658	     90.00000001	      0.00000000	      0.00000000	     13.64909839	    -19.52787786	     17.19572725	     46.82130358	     90.00000001	      0.00000000	      0.00000000
      1.20000000	      2.14135126	      1.27698908	      5.22332876	     -1.32366166	      0.86881869	      0.19870430	     31.48416277	     -2.77250787	    -27.15473796	     58.96894824	    -19.11341648	      1.02920230	      2.86232703	    -15.69383578	     -7.54793999	     10.88821302	      9.82963100	    -17.18125029	     27.18340568	    -15.33604464	      0.47443993	     27.27926968	     22.63862701	     -7.54793999	    -20.81204519	     -1.69652517	     -2.28828983	      4.56763673	    -14.19801884	     16.21040299	     33.07504970	     90.00000001	      0.00000000	      0.00000000	     14.88437612	    -19.92751034	     17.02802651	     47.62819812	     90.00000001	      0.00000000	      0.00000000
